<svg width="107" height="30" viewBox="0 0 107 30" fill="none" xmlns="http://www.w3.org/2000/svg">
<path d="M43.518 18.308C44.334 18.308 44.928 18.17 45.3 17.894C45.672 17.618 45.858 17.228 45.858 16.724C45.858 16.424 45.792 16.166 45.66 15.95C45.54 15.734 45.36 15.542 45.12 15.374C44.892 15.194 44.61 15.032 44.274 14.888C43.938 14.732 43.554 14.582 43.122 14.438C42.69 14.282 42.27 14.114 41.862 13.934C41.466 13.742 41.112 13.508 40.8 13.232C40.5 12.956 40.254 12.626 40.062 12.242C39.882 11.858 39.792 11.396 39.792 10.856C39.792 9.728 40.182 8.846 40.962 8.21C41.742 7.562 42.804 7.238 44.148 7.238C44.928 7.238 45.618 7.328 46.218 7.508C46.83 7.676 47.31 7.862 47.658 8.066L46.956 9.902C46.548 9.674 46.098 9.5 45.606 9.38C45.126 9.26 44.628 9.2 44.112 9.2C43.5 9.2 43.02 9.326 42.672 9.578C42.336 9.83 42.168 10.184 42.168 10.64C42.168 10.916 42.222 11.156 42.33 11.36C42.45 11.552 42.612 11.726 42.816 11.882C43.032 12.038 43.278 12.182 43.554 12.314C43.842 12.446 44.154 12.572 44.49 12.692C45.078 12.908 45.6 13.13 46.056 13.358C46.524 13.574 46.914 13.838 47.226 14.15C47.55 14.45 47.796 14.81 47.964 15.23C48.132 15.638 48.216 16.136 48.216 16.724C48.216 17.852 47.814 18.728 47.01 19.352C46.218 19.964 45.054 20.27 43.518 20.27C43.002 20.27 42.528 20.234 42.096 20.162C41.676 20.102 41.298 20.024 40.962 19.928C40.638 19.832 40.356 19.736 40.116 19.64C39.876 19.532 39.684 19.436 39.54 19.352L40.206 17.498C40.53 17.678 40.968 17.858 41.52 18.038C42.072 18.218 42.738 18.308 43.518 18.308ZM57.8287 19.712C57.4087 19.82 56.8627 19.928 56.1907 20.036C55.5187 20.156 54.7807 20.216 53.9767 20.216C53.2207 20.216 52.5847 20.108 52.0687 19.892C51.5647 19.676 51.1567 19.376 50.8447 18.992C50.5447 18.608 50.3287 18.152 50.1967 17.624C50.0647 17.084 49.9987 16.496 49.9987 15.86V10.586H52.1767V15.518C52.1767 16.526 52.3207 17.246 52.6087 17.678C52.9087 18.11 53.4247 18.326 54.1567 18.326C54.4207 18.326 54.6967 18.314 54.9847 18.29C55.2847 18.266 55.5067 18.236 55.6507 18.2V10.586H57.8287V19.712ZM66.8468 15.338C66.8468 14.366 66.6248 13.61 66.1808 13.07C65.7488 12.53 65.0468 12.26 64.0748 12.26C63.8708 12.26 63.6548 12.272 63.4268 12.296C63.2108 12.308 62.9948 12.344 62.7788 12.404V17.786C62.9708 17.918 63.2228 18.044 63.5348 18.164C63.8588 18.272 64.2008 18.326 64.5608 18.326C65.3528 18.326 65.9288 18.056 66.2888 17.516C66.6608 16.976 66.8468 16.25 66.8468 15.338ZM69.0788 15.302C69.0788 16.022 68.9828 16.682 68.7908 17.282C68.6108 17.882 68.3468 18.398 67.9988 18.83C67.6508 19.262 67.2128 19.598 66.6848 19.838C66.1688 20.078 65.5808 20.198 64.9208 20.198C64.4768 20.198 64.0688 20.144 63.6968 20.036C63.3248 19.928 63.0188 19.808 62.7788 19.676V23.33H60.6008V10.892C61.0448 10.772 61.5908 10.658 62.2388 10.55C62.8868 10.442 63.5708 10.388 64.2908 10.388C65.0348 10.388 65.7008 10.502 66.2888 10.73C66.8768 10.958 67.3748 11.288 67.7828 11.72C68.2028 12.14 68.5208 12.656 68.7368 13.268C68.9648 13.868 69.0788 14.546 69.0788 15.302ZM77.5695 15.338C77.5695 14.366 77.3475 13.61 76.9035 13.07C76.4715 12.53 75.7695 12.26 74.7975 12.26C74.5935 12.26 74.3775 12.272 74.1495 12.296C73.9335 12.308 73.7175 12.344 73.5015 12.404V17.786C73.6935 17.918 73.9455 18.044 74.2575 18.164C74.5815 18.272 74.9235 18.326 75.2835 18.326C76.0755 18.326 76.6515 18.056 77.0115 17.516C77.3835 16.976 77.5695 16.25 77.5695 15.338ZM79.8015 15.302C79.8015 16.022 79.7055 16.682 79.5135 17.282C79.3335 17.882 79.0695 18.398 78.7215 18.83C78.3735 19.262 77.9355 19.598 77.4075 19.838C76.8915 20.078 76.3035 20.198 75.6435 20.198C75.1995 20.198 74.7915 20.144 74.4195 20.036C74.0475 19.928 73.7415 19.808 73.5015 19.676V23.33H71.3235V10.892C71.7675 10.772 72.3135 10.658 72.9615 10.55C73.6095 10.442 74.2935 10.388 75.0135 10.388C75.7575 10.388 76.4235 10.502 77.0115 10.73C77.5995 10.958 78.0975 11.288 78.5055 11.72C78.9255 12.14 79.2435 12.656 79.4595 13.268C79.6875 13.868 79.8015 14.546 79.8015 15.302ZM90.5602 15.284C90.5602 16.028 90.4522 16.706 90.2362 17.318C90.0202 17.93 89.7142 18.452 89.3182 18.884C88.9222 19.316 88.4422 19.652 87.8782 19.892C87.3262 20.132 86.7142 20.252 86.0422 20.252C85.3702 20.252 84.7582 20.132 84.2062 19.892C83.6542 19.652 83.1802 19.316 82.7842 18.884C82.3882 18.452 82.0762 17.93 81.8482 17.318C81.6322 16.706 81.5242 16.028 81.5242 15.284C81.5242 14.54 81.6322 13.868 81.8482 13.268C82.0762 12.656 82.3882 12.134 82.7842 11.702C83.1922 11.27 83.6722 10.94 84.2242 10.712C84.7762 10.472 85.3822 10.352 86.0422 10.352C86.7022 10.352 87.3082 10.472 87.8602 10.712C88.4242 10.94 88.9042 11.27 89.3002 11.702C89.6962 12.134 90.0022 12.656 90.2182 13.268C90.4462 13.868 90.5602 14.54 90.5602 15.284ZM88.3282 15.284C88.3282 14.348 88.1242 13.61 87.7162 13.07C87.3202 12.518 86.7622 12.242 86.0422 12.242C85.3222 12.242 84.7582 12.518 84.3502 13.07C83.9542 13.61 83.7562 14.348 83.7562 15.284C83.7562 16.232 83.9542 16.982 84.3502 17.534C84.7582 18.086 85.3222 18.362 86.0422 18.362C86.7622 18.362 87.3202 18.086 87.7162 17.534C88.1242 16.982 88.3282 16.232 88.3282 15.284ZM98.168 12.548C97.988 12.488 97.736 12.428 97.412 12.368C97.1 12.296 96.734 12.26 96.314 12.26C96.074 12.26 95.816 12.284 95.54 12.332C95.276 12.38 95.09 12.422 94.982 12.458V20H92.804V11.036C93.224 10.88 93.746 10.736 94.37 10.604C95.006 10.46 95.708 10.388 96.476 10.388C96.62 10.388 96.788 10.4 96.98 10.424C97.172 10.436 97.364 10.46 97.556 10.496C97.748 10.52 97.934 10.556 98.114 10.604C98.294 10.64 98.438 10.676 98.546 10.712L98.168 12.548ZM99.9557 8.102L102.134 7.742V10.586H105.482V12.404H102.134V16.238C102.134 16.994 102.254 17.534 102.494 17.858C102.734 18.182 103.142 18.344 103.718 18.344C104.114 18.344 104.462 18.302 104.762 18.218C105.074 18.134 105.32 18.056 105.5 17.984L105.86 19.712C105.608 19.82 105.278 19.928 104.87 20.036C104.462 20.156 103.982 20.216 103.43 20.216C102.758 20.216 102.194 20.126 101.738 19.946C101.294 19.766 100.94 19.508 100.676 19.172C100.412 18.824 100.226 18.41 100.118 17.93C100.01 17.438 99.9557 16.88 99.9557 16.256V8.102Z" fill="#262626"/>
<path d="M30 20.3029C30 16.5802 27.8643 13.2577 24.6657 11.6416C24.5663 18.7795 18.7793 24.5666 11.6414 24.6659C13.2575 27.8645 16.58 30.0002 20.3027 30.0002C22.0482 30.0002 23.7456 29.5354 25.237 28.6521L29.9577 29.9579L28.6519 25.2372C29.5351 23.7458 30 22.0484 30 20.3029Z" fill="#262626"/>
<path d="M22.9102 11.4551C22.9102 5.13863 17.7715 0 11.4551 0C5.13863 0 0 5.13863 0 11.4551C0 13.5136 0.547943 15.518 1.58844 17.2776L0.0421143 22.8678L5.63255 21.3217C7.3922 22.3622 9.39651 22.9102 11.4551 22.9102C17.7715 22.9102 22.9102 17.7715 22.9102 11.4551ZM9.69727 8.78906H7.93945C7.93945 6.85043 9.51645 5.27344 11.4551 5.27344C13.3937 5.27344 14.9707 6.85043 14.9707 8.78906C14.9707 9.77303 14.5541 10.7188 13.8274 11.3834L12.334 12.7503V14.1211H10.5762V11.9762L12.6407 10.0866C13.0096 9.74899 13.2129 9.28825 13.2129 8.78906C13.2129 7.81975 12.4244 7.03125 11.4551 7.03125C10.4858 7.03125 9.69727 7.81975 9.69727 8.78906ZM10.5762 15.8789H12.334V17.6367H10.5762V15.8789Z" fill="#262626"/>
</svg>
